<svg xmlns="http://www.w3.org/2000/svg" width="199" height="199" fillRule="evenodd" xmlns:v="https://vecta.io/nano">
	<path fill="#1b50c5" d="M0 0h199v199H0z" />
	<g fill="#ec3047" fillRule="nonzero">
		<path d="M0 35v17.426L84.498 101.5 0 150.575V168l99.5-57.787L199 168v-17.425L114.502 101.5 199 52.426V35L99.5 92.787z" />
		<path d="M82.388 0v82.388H0v34.224h82.388V199h17.715 16.509v-82.388H199V82.388h-82.388V0h-16.509z" />
	</g>
	<path d="M79.323 0v75.445L0 29.648v7.711l72.685 41.965H55.937L0 47.028v7.711l42.581 24.584H0V86h54.147 13.355 6.944c4.545 0 7.33-.19 11.555-.19V79.3 0h-6.677zM113 0v79.274V86l11.555-.028h6.944 13.355H199v-6.675h-42.581L199 54.721v-7.709l-55.937 32.284h-16.748L199 37.346v-7.708L119.677 75.42V0H113zM86 113.081c-3.849 0-7.875-.081-11.556-.081h-6.943-13.355H0v6.677h42.581L0 144.261v7.711l55.936-32.295h16.749L0 161.641v7.711l79.323-45.797V199H86v-79.3-6.619zm27 0v6.619V199h6.677v-75.445L199 169.352v-7.711l-72.685-41.964h16.749L199 151.972v-7.711l-42.581-24.584H199V113h-54.146-13.355-6.943l-11.556.081z" fill="#fff" fillRule="nonzero" />
</svg>
