<svg xmlns="http://www.w3.org/2000/svg" width="18" height="18" fill="none" class="me-3 shrink-0"><path fill="url(#a)" d="M36.102 13.373V15.5h-5.318v-2.127h5.318Zm-4.527-10.67V15.5H29V2.703h2.575Z"></path><path fill="url(#b)" d="M40.074 5.99v9.51h-2.47V5.99h2.47ZM37.49 3.53c0-.382.12-.695.36-.941.247-.252.575-.378.985-.378.416 0 .744.126.984.378.24.246.36.56.36.94 0 .375-.122.689-.368.94-.24.247-.563.37-.967.37-.416 0-.747-.123-.993-.37a1.31 1.31 0 0 1-.36-.94Z"></path><path fill="url(#c)" d="M44.442 8.02v7.48h-2.47V5.99h2.312l.158 2.03Zm-.369 2.4-.659.018c-.012-.715.056-1.357.202-1.925.153-.569.366-1.052.642-1.45a2.933 2.933 0 0 1 1.002-.923c.392-.217.829-.326 1.31-.326.368 0 .705.065 1.01.194.31.129.577.334.8.615.222.281.395.656.518 1.125.123.463.185 1.031.185 1.705V15.5h-2.47V9.436c0-.41-.04-.727-.123-.95-.082-.228-.205-.386-.369-.474a1.225 1.225 0 0 0-.615-.14 1.02 1.02 0 0 0-.624.201 1.534 1.534 0 0 0-.457.536 3.189 3.189 0 0 0-.273.809 4.96 4.96 0 0 0-.079 1.002Z"></path><path fill="url(#d)" d="M54.717 15.676c-.65 0-1.228-.1-1.732-.299-.498-.2-.92-.486-1.265-.861-.346-.381-.61-.841-.791-1.38-.182-.54-.273-1.155-.273-1.846v-.782c0-.774.088-1.45.264-2.03.176-.586.425-1.079.747-1.477a2.953 2.953 0 0 1 1.186-.888c.475-.199 1.011-.299 1.609-.299.598 0 1.122.1 1.573.3.457.193.835.486 1.134.878.299.387.524.867.677 1.442.152.574.228 1.242.228 2.004v1.124h-6.372v-1.73h3.955v-.22c0-.387-.04-.71-.123-.967-.082-.264-.21-.46-.386-.59-.176-.128-.41-.193-.704-.193-.246 0-.454.05-.624.15-.17.1-.304.255-.404.466-.1.21-.173.486-.22.826a8.82 8.82 0 0 0-.07 1.204v.782c0 .44.038.809.114 1.108.076.292.188.533.334.72.153.182.337.314.554.396.217.076.469.114.756.114.433 0 .823-.076 1.169-.229.351-.158.65-.372.896-.641l.985 1.494a3.53 3.53 0 0 1-.703.668 3.836 3.836 0 0 1-1.073.545c-.416.14-.896.21-1.441.21Z"></path><path fill="url(#e)" d="M63.69 13.312V8.917c0-.287-.035-.516-.105-.686a.682.682 0 0 0-.299-.369.867.867 0 0 0-.474-.123.978.978 0 0 0-.528.132.807.807 0 0 0-.316.378 1.61 1.61 0 0 0-.097.589h-2.47c0-.41.08-.797.238-1.16.158-.37.39-.692.694-.967.31-.281.68-.501 1.107-.66a4.132 4.132 0 0 1 1.442-.237c.633 0 1.195.109 1.687.326.492.21.882.548 1.17 1.01.286.463.43 1.064.43 1.802v4.236c0 .534.026.967.08 1.301.058.334.143.621.254.862v.149h-2.479a4.124 4.124 0 0 1-.255-.984c-.052-.399-.079-.8-.079-1.204Zm.3-3.622.008 1.477h-.905c-.235 0-.44.038-.616.114-.17.076-.313.185-.43.325a1.342 1.342 0 0 0-.264.475c-.053.182-.079.375-.079.58 0 .229.032.422.097.58a.746.746 0 0 0 .29.36.833.833 0 0 0 .457.124c.27 0 .504-.056.703-.167.2-.112.346-.246.44-.405.099-.158.131-.304.096-.44l.563.959a4.35 4.35 0 0 1-.29.677 2.86 2.86 0 0 1-.449.65c-.181.2-.407.363-.676.492a2.207 2.207 0 0 1-.94.185c-.51 0-.976-.117-1.398-.352a2.608 2.608 0 0 1-1.002-.984c-.24-.422-.36-.923-.36-1.503 0-.48.076-.914.228-1.3.158-.393.392-.725.703-.994.31-.275.703-.486 1.178-.633.474-.146 1.031-.22 1.67-.22h.975Z"></path><path fill="url(#f)" d="M70.45 8.108V15.5h-2.462V5.99h2.32l.141 2.118Zm2.24-2.188-.035 2.452a3.113 3.113 0 0 0-.404-.053 5.341 5.341 0 0 0-.404-.017c-.276 0-.51.044-.703.132a1.172 1.172 0 0 0-.484.378c-.123.164-.217.369-.281.615a3.886 3.886 0 0 0-.114.835l-.466-.176c0-.621.047-1.19.14-1.705.1-.522.247-.973.44-1.354.193-.386.425-.685.694-.896.276-.211.586-.317.932-.317.117 0 .24.012.369.036.135.017.24.04.316.07Z"></path><path fill="url(#g)" d="M82.85 4.988 80.1 15.5h-2.716l3.999-12.797h1.696l-.228 2.285ZM85.023 15.5l-2.77-10.512-.254-2.285h1.723L87.755 15.5h-2.733Zm.096-4.773v2.136h-5.774v-2.136h5.774Z"></path><path fill="url(#h)" d="M93.459 13.4V2h2.47v13.5l-2.233.009-.237-2.11Zm-4.93-2.32v-.634c0-.773.064-1.45.193-2.03.135-.58.334-1.063.597-1.45.264-.387.586-.674.967-.862.387-.193.83-.29 1.327-.29.451 0 .847.115 1.187.343.346.223.639.536.879.94.24.405.433.882.58 1.433.146.551.249 1.155.307 1.81v.915c-.07.621-.178 1.201-.325 1.74a5.122 5.122 0 0 1-.58 1.406c-.24.399-.53.712-.87.94-.34.224-.735.335-1.186.335-.499 0-.94-.1-1.328-.299-.38-.2-.703-.492-.966-.879-.258-.393-.455-.873-.59-1.441a9.082 9.082 0 0 1-.193-1.978Zm2.46-.634v.633c0 .445.02.83.062 1.151.047.317.12.578.22.783.105.199.243.348.413.448.17.094.38.14.632.14.328 0 .595-.082.8-.246.205-.17.358-.4.457-.694.106-.299.164-.641.176-1.028V9.972a4.235 4.235 0 0 0-.114-.87 2.188 2.188 0 0 0-.273-.66 1.259 1.259 0 0 0-.44-.421c-.17-.1-.368-.15-.597-.15-.246 0-.457.05-.633.15-.17.1-.304.254-.404.465-.1.205-.176.472-.228.8-.047.322-.07.71-.07 1.16Z"></path><path fill="url(#i)" d="M100.262 7.959V15.5h-2.47V5.99h2.32l.15 1.969Zm-.352 2.46-.677.018a7.658 7.658 0 0 1 .176-1.845 4.814 4.814 0 0 1 .58-1.468c.264-.416.595-.738.994-.967.398-.228.864-.343 1.397-.343.346 0 .665.065.958.194.293.123.548.32.765.589.216.263.383.609.501 1.037.117.422.175.928.175 1.52V15.5h-2.461V9.453c0-.422-.041-.744-.123-.967-.082-.228-.199-.386-.351-.474a1.055 1.055 0 0 0-.563-.14c-.234 0-.439.064-.615.192a1.41 1.41 0 0 0-.431.545 3.513 3.513 0 0 0-.246.809c-.053.31-.079.645-.079 1.002Zm4.632-.245-.888.114a7.278 7.278 0 0 1 .167-1.749c.123-.545.314-1.02.572-1.424.258-.41.58-.73.966-.958.393-.228.847-.343 1.363-.343.387 0 .738.065 1.054.194.317.129.586.337.809.624.229.281.401.653.519 1.116.123.463.184 1.025.184 1.688V15.5h-2.47V9.444c0-.427-.041-.756-.123-.984-.082-.229-.199-.384-.351-.466a1.133 1.133 0 0 0-.545-.123.905.905 0 0 0-.554.176 1.389 1.389 0 0 0-.386.492 2.658 2.658 0 0 0-.238.73 4.8 4.8 0 0 0-.079.905Z"></path><path fill="url(#j)" d="M113.727 5.99v9.51h-2.47V5.99h2.47Zm-2.584-2.46c0-.382.12-.695.36-.941.246-.252.574-.378.984-.378.416 0 .745.126.985.378.24.246.36.56.36.94 0 .375-.123.689-.369.94-.24.247-.562.37-.967.37-.416 0-.747-.123-.993-.37a1.31 1.31 0 0 1-.36-.94Z"></path><path fill="url(#k)" d="M118.095 8.02v7.48h-2.47V5.99h2.312l.158 2.03Zm-.369 2.4-.659.018c-.012-.715.055-1.357.202-1.925.152-.569.366-1.052.641-1.45a2.937 2.937 0 0 1 1.002-.923 2.665 2.665 0 0 1 1.31-.326c.369 0 .706.065 1.011.194.31.129.577.334.799.615.223.281.396.656.519 1.125.123.463.184 1.031.184 1.705V15.5h-2.469V9.436c0-.41-.041-.727-.123-.95-.082-.228-.205-.386-.369-.474a1.231 1.231 0 0 0-.616-.14c-.234 0-.442.066-.624.201a1.539 1.539 0 0 0-.457.536 3.181 3.181 0 0 0-.272.809c-.059.31-.085.645-.079 1.002Z"></path><path fill="#0660B8" d="M2 0a2 2 0 1 0 0 4 2 2 0 0 0 0-4ZM9 0a2 2 0 1 0 0 4 2 2 0 0 0 0-4Z"></path><path fill="#22A279" d="M16 0a2 2 0 1 0 0 4 2 2 0 0 0 0-4ZM16 7a2 2 0 1 0 0 4 2 2 0 0 0 0-4ZM16 14a2 2 0 1 0 0 4 2 2 0 0 0 0-4ZM9 14a2 2 0 1 0 0 4 2 2 0 0 0 0-4ZM2 14a2 2 0 1 0 0 4 2 2 0 0 0 0-4Z"></path><path fill="#0660B8" d="M2 7a2 2 0 1 0 0 4 2 2 0 0 0 0-4Z"></path></svg>