<svg xmlns="http://www.w3.org/2000/svg" fill="currentColor" height="10" width="26"><path d="m5.191 6.287h1.079c-.027.586-.146 1.092-.357 1.518a2.21 2.21 0 0 1 -.908.973c-.395.227-.889.34-1.482.34a2.59 2.59 0 0 1 -1.154-.252 2.53 2.53 0 0 1 -.885-.721 3.43 3.43 0 0 1 -.557-1.137c-.129-.442-.195-.938-.195-1.488v-1.577c0-.547.064-1.041.193-1.482s.322-.818.568-1.131a2.52 2.52 0 0 1 .908-.727c.355-.168.766-.252 1.219-.252.555 0 1.023.111 1.406.334s.684.541.891.967.328.939.352 1.553h-1.078c-.027-.449-.098-.814-.211-1.096s-.281-.494-.504-.627-.504-.205-.855-.205c-.312 0-.584.063-.814.188s-.414.305-.562.539-.254.51-.328.838-.105.688-.105 1.09v1.588a5.9 5.9 0 0 0 .088 1.049 2.98 2.98 0 0 0 .293.855c.137.242.314.432.533.568a1.48 1.48 0 0 0 .797.205c.395 0 .707-.064.938-.193s.4-.334.51-.615.188-.648.223-1.102zm4.711-3.627v.832h-2.959v-.832zm-1.992-1.541h1.037v6.311c0 .215.025.377.076.486s.123.182.205.217a.66.66 0 0 0 .264.053 1.32 1.32 0 0 0 .234-.023l.176-.047-.006.884a1.73 1.73 0 0 1 -.281.076 2.31 2.31 0 0 1 -.445.041 1.27 1.27 0 0 1 -.621-.158c-.191-.105-.346-.281-.463-.527s-.176-.586-.176-1.008zm4.266 2.537v5.344h-1.037v-6.34h1.002zm1.576-1.031.006 1.008a1.42 1.42 0 0 0 -.234-.035c-.066-.008-.145-.012-.234-.012-.195 0-.367.039-.516.117a1.15 1.15 0 0 0 -.375.328c-.105.141-.189.309-.252.504a3.02 3.02 0 0 0 -.129.633l-.27.176c0-.383.029-.742.088-1.078a3.36 3.36 0 0 1 .287-.891 1.61 1.61 0 0 1 .492-.609c.199-.144.445-.223.727-.223a1.14 1.14 0 0 1 .229.029c.09.019.154.033.182.053zm2.156-2.625v9h-1.031v-9zm5.614.469v8.531h-1.078v-8.531zm4.289 0-2.936 3.979-1.717 2.068-.193-1.207 1.26-1.652 2.297-3.188zm-1.073 8.531-2.514-4.16.639-.896 3.159 5.056h-1.283z"></path></svg>